<svg xmlns="http://www.w3.org/2000/svg" xmlns:xlink="http://www.w3.org/1999/xlink" width="233.641" height="255.194" viewBox="0 0 233.641 255.194"><defs><filter id="a" x="0" y="0" width="233.641" height="255.194" filterUnits="userSpaceOnUse"><feOffset dx="3" dy="6" input="SourceAlpha"/><feGaussianBlur stdDeviation="3" result="b"/><feFlood flood-opacity="0.161"/><feComposite operator="in" in2="b"/><feComposite in="SourceGraphic"/></filter></defs><g transform="translate(3.481 524.705)"><g transform="matrix(1, 0, 0, 1, -3.48, -524.7)" filter="url(#a)"><path d="M202.637,81.041A102.26,102.26,0,0,1,218.16,34.3L183.661,1.08A63.384,63.384,0,0,1,146.288,16a66.484,66.484,0,0,1-36.6-7.085A71.2,71.2,0,0,1,73.028,16,67.881,67.881,0,0,1,37.458,2.453L2.872,35.661a100.078,100.078,0,0,1,14.176,45.38c.441,7.27-1.711,17.29-6.552,30.226q-3.3,9.164-5.753,18.6a90.482,90.482,0,0,0-2.218,12.511A59.643,59.643,0,0,0,14.6,179.681q9.66,12.119,31.8,26.763c16.127,7.9,28.612,13.033,37.358,15.221l7.254,3.253c2.28,1.045,4.723,2.075,7.27,3.192,5.507,3.176,9.365,6.614,11.4,10.164,2.5-3.847,6.45-7.193,11.7-10.164q4.718-1.948,9.355-4.083l5.477-2.357c1.87-.886,4.314-1.911,7.285-3.043q5.515-2.1,11.086-4.052c8.52-2.9,14.724-5.651,18.663-8.13q21.455-14.632,31.415-26.384a58.775,58.775,0,0,0,12.49-37.675c-.507-6.3-3.279-16.373-8.31-30.1-4.785-13.376-6.9-23.756-6.209-31.246Z" transform="translate(3.48 1.92)" fill="#2e839a"/></g><path d="M167.825,67.131A84.471,84.471,0,0,1,180.647,28.52L152.15,1.08A52.358,52.358,0,0,1,121.278,13.4,54.918,54.918,0,0,1,91.046,7.551,58.815,58.815,0,0,1,60.762,13.4,56.073,56.073,0,0,1,31.38,2.214L2.811,29.645A82.669,82.669,0,0,1,14.52,67.131c.364,6.005-1.413,14.283-5.413,24.968q-2.722,7.57-4.752,15.362A74.742,74.742,0,0,0,2.523,117.8,49.268,49.268,0,0,0,12.5,148.612q7.979,10.011,26.272,22.107c13.322,6.53,23.635,10.766,30.859,12.573l5.992,2.687c1.883.863,3.9,1.714,6.005,2.636,4.549,2.624,7.736,5.463,9.416,8.4,2.065-3.178,5.328-5.942,9.661-8.4q3.9-1.609,7.727-3.373l4.524-1.947c1.545-.732,3.563-1.578,6.018-2.514q4.556-1.736,9.158-3.347c7.038-2.4,12.162-4.668,15.417-6.716q17.723-12.086,25.95-21.794A48.55,48.55,0,0,0,179.818,117.8c-.419-5.205-2.708-13.525-6.864-24.862-3.953-11.049-5.7-19.623-5.129-25.81Z" transform="translate(18.321 -502.154)" fill="#fff"/><text transform="translate(110.839 -347.648)" font-size="31" font-family="SegoeUI-Semibold, Segoe UI" font-weight="600"><tspan x="-53.433" y="0">M.U.S.T</tspan></text><g transform="translate(69.233 -470.732)"><path d="M84.753,43.877A40.877,40.877,0,1,1,43.877,3,40.877,40.877,0,0,1,84.753,43.877Z" transform="translate(-3 -3)" fill="none" stroke="#2e839a" stroke-linecap="round" stroke-linejoin="bevel" stroke-width="3"/><path d="M46.3,11.64l-8.666,26-26,8.666,8.666-26Z" transform="translate(11.905 11.905)" fill="none" stroke="#2e839a" stroke-linecap="round" stroke-linejoin="bevel" stroke-width="3"/></g></g></svg>